<svg xmlns="http://www.w3.org/2000/svg" viewBox="0 0 392.5 67"><defs><style>.cls-1{fill:#5000b8;}.cls-2{fill:#fff;}</style></defs><title>ts-logo</title><g id="Layer_2" data-name="Layer 2"><g id="Layer_1-2" data-name="Layer 1"><path d="M90.57,23.83h4.09V30H90.57v8.88c0,2.12,1.43,2.62,3,2.62.41,0,.78,0,1.29,0v6.58a12.64,12.64,0,0,1-2.95.27c-5.7,0-9-2.62-9-9.8V30H80.54V23.83h2.35V18.72h7.68Z"/><path d="M113,33.58c0-2.25-1.34-3.45-3.18-3.45a3.27,3.27,0,0,0-3.4,3.45V48H98.76V14.72h7.68V26.31a7.06,7.06,0,0,1,6-3.08c7.55,0,8.28,6.44,8.28,11.37V48H113Z"/><path d="M132.75,38.23c0,2.25,1.33,3.45,3.17,3.45a3.2,3.2,0,0,0,3.32-3.45V23.83h7.68V48h-7.5V45.5a7.26,7.26,0,0,1-6.07,3.08c-7.55,0-8.28-6.44-8.28-11.36V23.83h7.68Z"/><path d="M172.68,48H165V33.58c0-2.16-1.06-3.45-2.9-3.45s-2.95,1.25-2.95,3.45V48h-7.68V23.83H159v2.48a6.59,6.59,0,0,1,6-3.08,7.1,7.1,0,0,1,6.26,3.18,8.3,8.3,0,0,1,6.85-3.18c5.57,0,8.19,3.59,8.19,8.7V48h-7.68V33.58c0-2.16-1.11-3.45-2.95-3.45s-2.94,1.38-2.94,3.45Z"/><path d="M198,48H190.8V14.72h7.68v11a8.92,8.92,0,0,1,6.44-2.44c7,0,11.41,5.2,11.41,12.7s-4.87,12.65-11.82,12.65A9.1,9.1,0,0,1,198,46.1Zm5.47-6.12c3.09,0,5.2-2.3,5.2-5.88s-2.07-6-5.2-6-5.2,2.16-5.2,6C198.25,39.2,200.14,41.86,203.45,41.86Z"/><path d="M218.31,44.44l4.32-4.19A7.6,7.6,0,0,0,228,42.37c1.47,0,2.16-.46,2.16-1.33,0-2.76-11-1.57-11-10.35,0-4.65,4-7.46,9.29-7.46A10.21,10.21,0,0,1,237,27.37l-5,3.91a5.78,5.78,0,0,0-4-1.88c-1.1,0-1.75.46-1.75,1.19,0,3,11.14,1.29,11.14,10,0,4.92-4.33,8-9.85,8A11.62,11.62,0,0,1,218.31,44.44Z"/><path d="M248.94,23.83H253V30h-4.1v8.88c0,2.12,1.43,2.62,3,2.62.42,0,.79,0,1.29,0v6.58a12.59,12.59,0,0,1-2.94.27c-5.71,0-9-2.62-9-9.8V30h-2.35V23.83h2.35V18.72h7.68Z"/><path d="M269,23.23c7.78,0,13.25,5.34,13.25,12.65s-5.61,12.7-13.25,12.7S255.89,43.25,255.89,36,261.55,23.23,269,23.23Zm0,18.59a5.6,5.6,0,0,0,5.57-5.94A5.52,5.52,0,0,0,269,30c-3.17,0-5.43,2.43-5.43,6S265.87,41.82,269,41.82Z"/><path d="M292.92,25.72a9.05,9.05,0,0,1,6.53-2.49c6.95,0,11.83,5.25,11.83,12.65s-4.42,12.7-11.41,12.7a8.9,8.9,0,0,1-6.44-2.44V56.59h-7.69V23.83h7.18Zm5.47,16.1c3.13,0,5.2-2.44,5.2-6S301.48,30,298.39,30c-3.31,0-5.19,2.67-5.19,5.89C293.2,39.66,295.36,41.82,298.39,41.82Z"/><path d="M322,25.72a9.05,9.05,0,0,1,6.53-2.49c7,0,11.83,5.25,11.83,12.65s-4.42,12.7-11.41,12.7a8.9,8.9,0,0,1-6.44-2.44V56.59h-7.69V23.83H322Zm5.48,16.1c3.12,0,5.19-2.44,5.19-6S330.55,30,327.47,30c-3.32,0-5.2,2.67-5.2,5.89C322.27,39.66,324.43,41.82,327.47,41.82Z"/><path d="M350.56,37.91c.18,2.16,2.25,4,5.1,4a6.23,6.23,0,0,0,5.06-2.58l5.06,3.92c-.69,1.42-4,5.33-10.25,5.33-8,0-12.84-5.47-12.84-12.6s4.78-12.75,11.87-12.75c7.68,0,11.87,4.93,11.87,13.16,0,.46,0,1-.05,1.52Zm.23-4.88h7.82a3.71,3.71,0,0,0-3.91-3.59A3.82,3.82,0,0,0,350.79,33Z"/><path d="M383.72,31.05a9,9,0,0,0-1.24-.09c-3.73,0-5,2.72-5,6.35V48h-7.68V23.83h7.5v3.22a6.8,6.8,0,0,1,6.39-3.82Z"/><path class="cls-1" d="M47.38,0H19.62L0,19.62V47.38L19.62,67H47.38L67,47.38V19.62ZM7.06,36.75l0,0H7V36.7H6.92V28.45c0-2.83.46-4.12,1.15-5.19l.76-1.12a36.18,36.18,0,0,1,3.52-4.27l.13-.14.17-.17.21-.21,0,0c.49-.48,1-.94,1.5-1.39l.52-.44c.26-.22.55-.45.9-.72l.09-.07.34-.26a29.23,29.23,0,0,1,3.09-2A34.21,34.21,0,0,1,29,8.75l.12,0c.52-.12,1.06-.24,1.61-.32A32.29,32.29,0,0,1,36,8.05h.21a20.15,20.15,0,0,1,15.08,6.56h0l0,0,.05,0,.26.24-.35-.13h0a33.54,33.54,0,0,0-11.75-2.1A34,34,0,0,0,30.24,14a33.51,33.51,0,0,0-12.56,6.67l-.24.21-.09.08h0l-.69.61a34.06,34.06,0,0,0-3.12,3.24,33.63,33.63,0,0,0-6.47,12ZM42.51,43C41,54.27,38.1,60.24,38.1,60.24H31.63S34,53.4,34.71,49.94a64.16,64.16,0,0,0,1.15-7.32,3.48,3.48,0,0,1,3.37-3,3.86,3.86,0,0,1,2.22.76A2.76,2.76,0,0,1,42.51,43Zm3.22,15.25,0,0v0c.07-.15.51-1.14.58-1.28a27.17,27.17,0,0,0,2.59-11.65c0-.9-.06-1.82-.15-2.73l0-.34a9.48,9.48,0,0,0-.44-2.05A8.74,8.74,0,0,0,47.15,38l0,0a10.65,10.65,0,0,0-1.23-1.47,10.18,10.18,0,0,0-17.1,5.2q-1.07,5.12-2.44,10.13l-.42,1.54c-.69,2.52-1,3.64-2.06,6.7l-.94-.94-3.62-3.6q.55-1.65,1.08-3.33l3.08-11c.08-.29.15-.59.22-.87l0-.18c0-.07,0-.14.05-.2s0-.12,0-.18l0-.08,0-.12c0-.06,0-.12.05-.18l.06-.19a1.21,1.21,0,0,1,.05-.18l.06-.19a1.54,1.54,0,0,0,.05-.17c0-.07.05-.13.07-.19l.06-.18a1.34,1.34,0,0,1,.07-.18L24.4,38c0-.07.05-.13.08-.19l.06-.17a1.42,1.42,0,0,0,.08-.18,1.22,1.22,0,0,0,.07-.17l.09-.18.07-.16.09-.18.08-.16.09-.18.09-.16.09-.17.09-.16.1-.17.09-.16.1-.17a1.3,1.3,0,0,0,.1-.15l.11-.16L26,35l.12-.17.1-.14.12-.17.1-.14.12-.16.11-.14.13-.16.1-.13,0,0,.12-.14a1.47,1.47,0,0,0,.1-.13l.15-.16.1-.12.16-.17.1-.1.18-.19.08-.08.27-.26.06-.06.21-.2.1-.09.18-.16.12-.1.17-.14.13-.1.16-.13.14-.11.16-.12.14-.1.17-.12.14-.1.17-.12.14-.09.17-.11.15-.1.17-.1.16-.09a1,1,0,0,1,.17-.1l.15-.09.18-.1.16-.08.18-.09.16-.08.18-.09.16-.08.18-.08.17-.07.18-.08.17-.07.19-.07.16-.07.19-.07.17-.06.2-.06.17-.06.19-.06.18-.05.19,0,.18-.05.2-.05.18-.05.19,0,.18,0,.21,0,.18,0,.2,0,.18,0,.21,0,.18,0,.21,0,.18,0,.22,0,.18,0h1a16,16,0,0,1,13.59,8,15.89,15.89,0,0,1,2.13,8A16,16,0,0,1,45.73,58.22ZM58.89,34.46l-.78-1.2s-1.73-2.37-2.92-3.73c-.2-.22-.37-.41-.53-.56a21.74,21.74,0,0,0-15.34-6.29A23.29,23.29,0,0,0,25.1,27.43a11.9,11.9,0,0,0-.94.79,20.56,20.56,0,0,0-2.23,2.34c-.29.37-.58.75-.85,1.14a17.82,17.82,0,0,0-1.76,3.13,26.12,26.12,0,0,0-1.44,4.6,84.4,84.4,0,0,1-2.47,8.29C14.59,50,14,51.41,14,51.41L9.88,47.33c.87-2.27,1.42-4.26,1.9-5.94.71-2.5,1.65-6.27,2-7.07a24.33,24.33,0,0,1,3.2-5.87,23.69,23.69,0,0,1,2.57-3l1.44-1.32c.31-.27.63-.54,1-.79a28.51,28.51,0,0,1,17.37-5.84,25.73,25.73,0,0,1,10.45,2.19,22,22,0,0,1,5.66,3.71l.18.16a10.59,10.59,0,0,1,3,5c.11.38.2.76.28,1.15a25.84,25.84,0,0,1,.16,2.8C59,33.15,58.94,33.81,58.89,34.46Z"/><polygon class="cls-2" points="51.26 14.63 51.24 14.61 51.24 14.61 51.24 14.61 51.26 14.63"/><polygon class="cls-2" points="51.21 14.78 51.21 14.78 51.22 14.78 51.22 14.78 51.21 14.78"/><path class="cls-2" d="M16.24,14.44l-.34.26-.09.07.09-.07Z"/><polygon class="cls-2" points="51.31 14.67 51.26 14.63 51.57 14.91 51.31 14.67"/><path d="M388.46,16.85a3.81,3.81,0,0,1,4,3.92,3.84,3.84,0,0,1-4,3.93,3.78,3.78,0,0,1-4-3.92A3.81,3.81,0,0,1,388.46,16.85Zm0,6.82a2.71,2.71,0,0,0,2.85-2.9,2.85,2.85,0,1,0-5.69,0A2.73,2.73,0,0,0,388.5,23.67Zm-.37-2.24v1.35H386.9V18.71h1.85a1.29,1.29,0,0,1,1.43,1.34,1.13,1.13,0,0,1-.64,1.15l.75,1.58H389l-.58-1.35Zm0-1.7v.73h.43a.35.35,0,0,0,.36-.37.34.34,0,0,0-.36-.36Z"/></g></g></svg>